<svg width="60" height="60" viewBox="0 0 60 60" fill="none" xmlns="http://www.w3.org/2000/svg">
<g filter="url(#filter0_d_419_42)">
<circle cx="29.9523" cy="26.3095" r="26.3095" fill="#F2FFF5"/>
</g>
<path d="M48.976 12.1431C47.4606 12.9629 44.42 14.0802 42.6326 14.4025C42.5802 14.4149 42.5374 14.4308 42.4869 14.4432C40.9074 13.0231 38.743 12.1431 36.3475 12.1431C31.5195 12.1431 27.6046 15.7111 27.6046 20.1113C27.6046 20.3433 27.5832 20.77 27.6046 20.9967C21.0902 20.9967 16.132 17.8873 12.5766 13.9138C12.19 14.7992 12.021 16.198 12.021 17.5119C12.021 19.9927 14.1484 22.4292 17.461 23.9396C16.8509 24.083 16.1787 24.1858 15.4792 24.1858C14.3504 24.1858 13.1556 23.9148 12.0618 23.0932C12.0618 23.1233 12.0618 23.1517 12.0618 23.1835C12.0618 26.6506 16.099 29.011 19.6894 29.6679C18.9608 30.0592 17.492 30.0982 16.7751 30.0982C16.27 30.0982 14.4826 29.8875 14.0046 29.806C15.0032 32.648 18.6053 34.2452 22.0383 34.3019C19.3533 36.2214 17.4901 36.9332 11.9918 36.9332H10.1189C13.5927 38.9624 18.0166 40.4764 22.4502 40.4764C36.8856 40.4764 45.0903 30.4488 45.0903 20.9967C45.0903 20.8444 45.0864 20.5257 45.0806 20.2052C45.0806 20.1733 45.0903 20.1432 45.0903 20.1113C45.0903 20.0635 45.0748 20.0175 45.0748 19.9697C45.069 19.7288 45.0631 19.504 45.0573 19.3871C46.5922 18.3778 47.923 17.1188 48.976 15.6845C47.5675 16.2547 46.0559 16.6372 44.4686 16.8107C46.089 15.9253 48.3912 13.8146 48.976 12.1431Z" fill="#32794F"/>
<defs>
<filter id="filter0_d_419_42" x="0.404727" y="0" width="59.0953" height="59.0953" filterUnits="userSpaceOnUse" color-interpolation-filters="sRGB">
<feFlood flood-opacity="0" result="BackgroundImageFix"/>
<feColorMatrix in="SourceAlpha" type="matrix" values="0 0 0 0 0 0 0 0 0 0 0 0 0 0 0 0 0 0 127 0" result="hardAlpha"/>
<feOffset dy="3.2381"/>
<feGaussianBlur stdDeviation="1.61905"/>
<feComposite in2="hardAlpha" operator="out"/>
<feColorMatrix type="matrix" values="0 0 0 0 0 0 0 0 0 0 0 0 0 0 0 0 0 0 0.25 0"/>
<feBlend mode="normal" in2="BackgroundImageFix" result="effect1_dropShadow_419_42"/>
<feBlend mode="normal" in="SourceGraphic" in2="effect1_dropShadow_419_42" result="shape"/>
</filter>
</defs>
</svg>
