<svg width="60" height="60" viewBox="0 0 60 60" fill="none" xmlns="http://www.w3.org/2000/svg">
<g filter="url(#filter0_d_419_45)">
<circle cx="30.0476" cy="26.3095" r="26.3095" fill="#F2FFF5"/>
</g>
<g clip-path="url(#clip0_419_45)">
<path d="M30.0474 7.7583C19.8014 7.7583 11.4958 16.0638 11.4958 26.3099C11.4958 34.1702 16.386 40.8822 23.2872 43.5851C23.1258 42.1177 22.9774 39.8655 23.3522 38.2645C23.6898 36.8175 25.5264 29.0425 25.5264 29.0425C25.5264 29.0425 24.9717 27.9313 24.9717 26.2895C24.9717 23.709 26.467 21.7852 28.3277 21.7852C29.9102 21.7852 30.6745 22.9743 30.6745 24.3972C30.6745 25.9889 29.6616 28.3691 29.1384 30.573C28.7006 32.4208 30.0641 33.9253 31.8859 33.9253C35.1825 33.9253 37.7167 30.4487 37.7167 25.4305C37.7167 20.9893 34.5258 17.8838 29.9677 17.8838C24.6897 17.8838 21.5916 21.8427 21.5916 25.9351C21.5916 27.5287 22.2057 29.2392 22.9719 30.1686C23.124 30.3523 23.1444 30.5137 23.0999 30.701C22.9589 31.2873 22.6472 32.5469 22.586 32.8048C22.5062 33.1443 22.317 33.2166 21.9664 33.0515C19.6493 31.9718 18.2004 28.5843 18.2004 25.8647C18.2004 20.0135 22.4524 14.6372 30.4593 14.6372C36.8948 14.6372 41.8963 19.2232 41.8963 25.3526C41.8963 31.7474 37.8651 36.8917 32.2699 36.8917C30.3906 36.8917 28.6227 35.914 28.0179 34.762C28.0179 34.762 27.0866 38.3035 26.8621 39.1736C26.4429 40.7838 25.3131 42.806 24.5562 44.0378C26.2907 44.5702 28.1348 44.8615 30.0474 44.8615C40.2916 44.8615 48.599 36.5541 48.599 26.3099C48.599 16.0657 40.2935 7.7583 30.0474 7.7583Z" fill="#32794F"/>
</g>
<defs>
<filter id="filter0_d_419_45" x="0.499942" y="0" width="59.0953" height="59.0953" filterUnits="userSpaceOnUse" color-interpolation-filters="sRGB">
<feFlood flood-opacity="0" result="BackgroundImageFix"/>
<feColorMatrix in="SourceAlpha" type="matrix" values="0 0 0 0 0 0 0 0 0 0 0 0 0 0 0 0 0 0 127 0" result="hardAlpha"/>
<feOffset dy="3.2381"/>
<feGaussianBlur stdDeviation="1.61905"/>
<feComposite in2="hardAlpha" operator="out"/>
<feColorMatrix type="matrix" values="0 0 0 0 0 0 0 0 0 0 0 0 0 0 0 0 0 0 0.25 0"/>
<feBlend mode="normal" in2="BackgroundImageFix" result="effect1_dropShadow_419_45"/>
<feBlend mode="normal" in="SourceGraphic" in2="effect1_dropShadow_419_45" result="shape"/>
</filter>
<clipPath id="clip0_419_45">
<rect width="44.5238" height="44.5238" fill="white" transform="translate(7.78564 4.04785)"/>
</clipPath>
</defs>
</svg>
