<svg width="60" height="60" viewBox="0 0 60 60" fill="none" xmlns="http://www.w3.org/2000/svg">
<g filter="url(#filter0_d_419_50)">
<circle cx="30.1428" cy="26.3095" r="26.3095" fill="#F2FFF5"/>
</g>
<path d="M47.5957 17.8893C47.1768 16.584 45.9418 15.5549 44.3754 15.2058C41.534 14.5713 30.1428 14.5713 30.1428 14.5713C30.1428 14.5713 18.7515 14.5713 15.9101 15.2058C14.3437 15.5549 13.1088 16.584 12.6898 17.8893C11.9285 20.2572 11.9285 26.7141 11.9285 26.7141C11.9285 26.7141 11.9285 33.1711 12.6898 35.539C13.1088 36.8443 14.3437 37.8734 15.9101 38.2225C18.7515 38.857 30.1428 38.857 30.1428 38.857C30.1428 38.857 41.534 38.857 44.3754 38.2225C45.9436 37.8734 47.1768 36.8443 47.5957 35.539C48.357 33.1711 48.357 26.7141 48.357 26.7141C48.357 26.7141 48.357 20.2572 47.5957 17.8893ZM26.4999 31.972V21.4563L37.4285 26.7141L26.4999 31.972Z" fill="#32794F"/>
<defs>
<filter id="filter0_d_419_50" x="0.595157" y="0" width="59.0953" height="59.0953" filterUnits="userSpaceOnUse" color-interpolation-filters="sRGB">
<feFlood flood-opacity="0" result="BackgroundImageFix"/>
<feColorMatrix in="SourceAlpha" type="matrix" values="0 0 0 0 0 0 0 0 0 0 0 0 0 0 0 0 0 0 127 0" result="hardAlpha"/>
<feOffset dy="3.2381"/>
<feGaussianBlur stdDeviation="1.61905"/>
<feComposite in2="hardAlpha" operator="out"/>
<feColorMatrix type="matrix" values="0 0 0 0 0 0 0 0 0 0 0 0 0 0 0 0 0 0 0.25 0"/>
<feBlend mode="normal" in2="BackgroundImageFix" result="effect1_dropShadow_419_50"/>
<feBlend mode="normal" in="SourceGraphic" in2="effect1_dropShadow_419_50" result="shape"/>
</filter>
</defs>
</svg>
