<svg width="157" height="72" viewBox="0 0 157 72" fill="none" xmlns="http://www.w3.org/2000/svg">
<path d="M95.9132 27.6419C97.0823 27.8971 98.0234 27.4736 99.3221 26.8708H99.3219C98.9603 25.835 98.6687 24.7764 98.4486 23.7019C97.1415 24.6048 93.4341 26.8176 95.9133 27.6419L95.9132 27.6419Z" fill="#32794F"/>
<path d="M99.7024 26.6804C104.446 23.621 110.763 21.9609 116.298 23.6294C117.707 17.0449 114.132 14.4033 109.255 15.6092C108.672 16.1616 108.954 18.3153 107.717 18.4471C106.227 18.3293 106.466 17.3087 106.655 15.8083C105.41 15.4024 104.297 15.2444 103.323 15.3017C104.535 18.761 103.323 20.602 98.5748 21.2051C98.5696 22.8178 98.9354 24.6783 99.7024 26.6804L99.7024 26.6804Z" fill="url(#paint0_linear_343_2457)"/>
<path d="M110.39 27.073C106.728 27.0982 103.717 28.7809 101.266 30.1353C102.973 33.3799 105.598 32.7741 107.582 31.8655C110.962 33.5481 113.306 32.5356 115.168 27.4965C113.594 27.199 111.993 27.0572 110.39 27.073H110.39Z" fill="url(#paint1_linear_343_2457)"/>
<path d="M107.717 18.0262C107.88 18.0262 108.015 17.9757 108.052 17.8523C108.998 13.5815 111.049 13.1384 111.049 13.1384L109.923 12C106.652 13.2562 106.325 18.4498 107.717 18.0262Z" fill="#0A6835"/>
<path d="M116.405 24.9077C116.405 25.0239 116.31 25.118 116.194 25.118C116.077 25.118 115.982 25.0239 115.982 24.9077V23.985C115.419 23.8588 114.824 23.7438 114.182 23.6513C114.117 23.8447 114.36 24.8852 113.971 24.857C113.576 24.8906 113.824 23.7802 113.76 23.5922C113.117 23.5137 112.433 23.4548 111.709 23.4239C111.647 23.6174 111.889 24.6719 111.497 24.6438C111.109 24.6747 111.351 23.5949 111.286 23.4071V23.4073C110.696 23.3924 110.106 23.4075 109.517 23.4521C109.43 23.6401 109.731 25.5721 109.306 25.5133C108.878 25.5778 109.179 23.668 109.094 23.4914C108.489 23.556 107.888 23.6608 107.297 23.8056V24.7815C107.297 24.8975 107.203 24.9917 107.086 24.9917C106.969 24.9917 106.875 24.8975 106.875 24.7815V23.9122C106.329 24.0589 105.791 24.233 105.263 24.4337V25.6787C105.263 25.7949 105.168 25.889 105.052 25.889C104.935 25.889 104.84 25.7949 104.84 25.6787V24.5739C104.223 24.8235 103.635 25.0927 103.071 25.3703V26.5594C103.071 26.6756 102.977 26.7697 102.86 26.7697C102.743 26.7697 102.649 26.6756 102.649 26.5594V25.5946C102.046 25.9031 101.497 26.2004 100.933 26.5032V27.5071C100.933 27.6233 100.839 27.7174 100.722 27.7174C100.605 27.7174 100.511 27.6233 100.511 27.5071V26.7276C100.012 26.994 99.5359 27.238 99.0767 27.4483V29.3719C98.4427 30.3787 98.6964 27.7847 98.6542 27.6333C98.1482 27.8551 97.6162 28.0126 97.0709 28.1016C97.009 28.2923 97.2456 29.3019 96.8596 29.2766C96.4794 29.3019 96.7075 28.326 96.6484 28.1382H96.6482C96.0919 28.1701 95.5395 28.0259 95.0706 27.7259C94.0761 37.0952 103.804 25.8891 110.376 26.6518C114.833 26.5872 118.389 27.7902 120 28.5868V25.3844C119.51 25.1415 119.006 24.9242 118.493 24.7338V25.4601C118.493 25.5763 118.398 25.6704 118.282 25.6704C118.165 25.6704 118.07 25.5763 118.07 25.4601V24.574C117.572 24.4031 117.011 24.2319 116.38 24.0778L116.405 24.9077Z" fill="#0A6835"/>
<path d="M23.7458 13.555C25.2024 13.555 26.3908 13.9537 27.3108 14.751C28.2461 15.533 28.7138 16.7137 28.7138 18.293C28.7138 19.5503 28.2921 20.7233 27.4488 21.812C26.6054 22.8853 25.5244 23.744 24.2058 24.388C22.9024 25.032 21.5914 25.354 20.2728 25.354C20.1348 25.354 20.0504 25.3387 20.0198 25.308L20.1348 24.687C21.1621 24.5797 22.1664 24.2577 23.1478 23.721C24.1291 23.1843 24.9264 22.4867 25.5398 21.628C26.1684 20.754 26.4828 19.788 26.4828 18.73C26.4828 17.58 26.1301 16.66 25.4248 15.97C24.7348 15.28 23.7074 14.935 22.3428 14.935C21.2848 14.935 20.1654 15.188 18.9848 15.694C17.8194 16.1847 16.7998 16.8287 15.9258 17.626L15.4888 17.143C16.6081 16.1003 17.9114 15.2417 19.3988 14.567C20.9014 13.8923 22.3504 13.555 23.7458 13.555ZM19.0768 29.494L16.9608 30.299V17.718L19.0768 16.89V29.494ZM33.0994 24.135C33.6054 22.9697 34.2034 22.0267 34.8934 21.306L34.8244 21.237C34.1957 21.5743 33.5057 21.743 32.7544 21.743C32.4631 21.743 32.2331 21.7277 32.0644 21.697C31.8957 21.6663 31.6811 21.5973 31.4204 21.49L29.9254 24.779L29.0744 24.388L30.6154 21.168C30.1401 20.7693 29.8487 20.4167 29.7414 20.11L31.6044 18.017C31.8344 18.5843 32.1641 19.1057 32.5934 19.581C33.0227 20.041 33.4981 20.271 34.0194 20.271C34.9087 20.271 35.8901 19.9337 36.9634 19.259L37.3314 19.581C36.4114 20.5623 35.6524 21.5743 35.0544 22.617C34.4564 23.6597 34.1574 24.7637 34.1574 25.929C34.1574 26.6497 34.3414 27.263 34.7094 27.769C35.0774 28.275 35.6217 28.528 36.3424 28.528C36.8024 28.528 37.2701 28.367 37.7454 28.045L37.9984 28.39C37.5844 28.9267 37.0784 29.3637 36.4804 29.701C35.8977 30.0383 35.2844 30.207 34.6404 30.207C33.8431 30.207 33.2604 29.931 32.8924 29.379C32.5397 28.8117 32.3634 28.114 32.3634 27.286C32.3634 26.3353 32.6087 25.285 33.0994 24.135ZM45.4833 18.776C44.3333 19.512 43.4286 20.3323 42.7693 21.237C42.11 22.1417 41.7803 23.2073 41.7803 24.434C41.7803 25.124 41.926 25.8217 42.2173 26.527C42.5086 27.217 42.9456 27.792 43.5283 28.252C44.111 28.712 44.8086 28.942 45.6213 28.942C46.2806 28.942 46.8633 28.7887 47.3693 28.482C47.8906 28.1753 48.2893 27.7613 48.5653 27.24C48.8566 26.7187 49.0023 26.1437 49.0023 25.515C49.0023 24.7943 48.78 24.0583 48.3353 23.307C47.906 22.5557 47.3386 21.9193 46.6333 21.398C45.928 20.8767 45.2073 20.5853 44.4713 20.524C44.778 20.2173 45.146 19.8953 45.5753 19.558C46.0046 19.2207 46.4416 18.891 46.8863 18.569C47.9443 18.9217 48.78 19.5963 49.3933 20.593C50.0066 21.5743 50.3133 22.6707 50.3133 23.882C50.3133 24.9553 50.091 25.9903 49.6463 26.987C49.217 27.9683 48.5806 28.7733 47.7373 29.402C46.894 30.0153 45.8973 30.322 44.7473 30.322C43.8273 30.322 42.9763 30.0997 42.1943 29.655C41.4276 29.195 40.822 28.574 40.3773 27.792C39.9326 27.01 39.7103 26.1437 39.7103 25.193C39.7103 23.5217 40.201 22.0727 41.1823 20.846C42.179 19.6193 43.4746 18.7683 45.0693 18.293L45.4833 18.776ZM54.1498 16.453L53.2528 11.669L55.8058 10.818L54.9548 16.177L54.1498 16.453ZM53.5978 19.443L55.6448 18.592V28.758C55.6448 30.1533 55.3228 31.4643 54.6788 32.691C54.0501 33.9177 53.2221 34.899 52.1948 35.635C51.1675 36.3863 50.1018 36.762 48.9978 36.762C48.3078 36.762 47.6561 36.555 47.0428 36.141L48.6988 34.094C49.2968 34.6307 50.0481 34.899 50.9528 34.899C51.7348 34.899 52.3711 34.577 52.8618 33.933C53.3525 33.3043 53.5978 32.0853 53.5978 30.276V19.443ZM65.2448 18.293C66.0728 18.293 66.7628 18.5153 67.3148 18.96C67.8668 19.4047 68.1428 20.064 68.1428 20.938C68.1428 21.6433 67.7595 22.433 66.9928 23.307C66.2415 24.1657 65.3521 24.9553 64.3248 25.676C63.3128 26.3967 62.4465 26.9027 61.7258 27.194C62.1091 27.8073 62.5461 28.2367 63.0368 28.482C63.5275 28.712 64.1025 28.827 64.7618 28.827C65.4978 28.827 66.2261 28.643 66.9468 28.275C67.6828 27.8917 68.2885 27.401 68.7638 26.803L69.0398 27.286C68.2885 28.252 67.4911 28.9957 66.6478 29.517C65.8045 30.023 64.7695 30.276 63.5428 30.276C62.6075 30.276 61.7718 30.046 61.0358 29.586C60.2998 29.126 59.7248 28.5127 59.3108 27.746C58.8968 26.964 58.6898 26.1207 58.6898 25.216C58.6898 24.0813 58.9965 22.9773 59.6098 21.904C60.2231 20.8307 61.0358 19.9643 62.0478 19.305C63.0598 18.6303 64.1255 18.293 65.2448 18.293ZM64.0488 19.742C63.3741 19.742 62.7685 19.9567 62.2318 20.386C61.7105 20.8153 61.2965 21.3673 60.9898 22.042C60.6985 22.7167 60.5528 23.4143 60.5528 24.135C60.5528 25.0857 60.7751 25.8983 61.2198 26.573C61.8638 26.2817 62.5615 25.8447 63.3128 25.262C64.0641 24.664 64.7005 24.02 65.2218 23.33C65.7431 22.64 66.0038 22.0113 66.0038 21.444C66.0038 20.3093 65.3521 19.742 64.0488 19.742ZM74.1104 18.5H77.3074L76.6174 19.972H74.1104V28.068C74.1104 28.298 74.1794 28.4897 74.3174 28.643C74.4554 28.781 74.6394 28.85 74.8694 28.85C75.1914 28.85 75.6361 28.551 76.2034 27.953L76.5254 28.298C76.2341 28.8807 75.8814 29.3177 75.4674 29.609C75.0687 29.885 74.6854 30.0537 74.3174 30.115C73.9647 30.1917 73.7884 30.1993 73.7884 30.138C73.8037 30.138 73.8267 30.1303 73.8574 30.115C73.8881 30.115 73.9341 30.115 73.9954 30.115C72.6461 30.115 71.9714 29.3407 71.9714 27.792V19.972H70.2464L70.9594 18.5H71.9714V13.21L74.1104 12.382V18.5ZM84.3407 18.776C83.1907 19.512 82.286 20.3323 81.6267 21.237C80.9674 22.1417 80.6377 23.2073 80.6377 24.434C80.6377 25.124 80.7834 25.8217 81.0747 26.527C81.366 27.217 81.803 27.792 82.3857 28.252C82.9684 28.712 83.666 28.942 84.4787 28.942C85.138 28.942 85.7207 28.7887 86.2267 28.482C86.748 28.1753 87.1467 27.7613 87.4227 27.24C87.714 26.7187 87.8597 26.1437 87.8597 25.515C87.8597 24.7943 87.6374 24.0583 87.1927 23.307C86.7634 22.5557 86.196 21.9193 85.4907 21.398C84.7854 20.8767 84.0647 20.5853 83.3287 20.524C83.6354 20.2173 84.0034 19.8953 84.4327 19.558C84.862 19.2207 85.299 18.891 85.7437 18.569C86.8017 18.9217 87.6374 19.5963 88.2507 20.593C88.864 21.5743 89.1707 22.6707 89.1707 23.882C89.1707 24.9553 88.9484 25.9903 88.5037 26.987C88.0744 27.9683 87.438 28.7733 86.5947 29.402C85.7514 30.0153 84.7547 30.322 83.6047 30.322C82.6847 30.322 81.8337 30.0997 81.0517 29.655C80.285 29.195 79.6794 28.574 79.2347 27.792C78.79 27.01 78.5677 26.1437 78.5677 25.193C78.5677 23.5217 79.0584 22.0727 80.0397 20.846C81.0364 19.6193 82.332 18.7683 83.9267 18.293L84.3407 18.776Z" fill="#0A6835"/>
<path d="M34.0085 36.038L36.1475 35.21V51.54L34.0085 52.322V45.629H27.5455V51.54L25.3835 52.322V45.629H23.5205L24.1875 44.272H25.3835V36.038L27.5455 35.21V44.272H34.0085V36.038ZM45.2956 40.293C46.1236 40.293 46.8136 40.5153 47.3656 40.96C47.9176 41.4047 48.1936 42.064 48.1936 42.938C48.1936 43.6433 47.8102 44.433 47.0436 45.307C46.2922 46.1657 45.4029 46.9553 44.3756 47.676C43.3636 48.3967 42.4972 48.9027 41.7766 49.194C42.1599 49.8073 42.5969 50.2367 43.0876 50.482C43.5782 50.712 44.1532 50.827 44.8126 50.827C45.5486 50.827 46.2769 50.643 46.9976 50.275C47.7336 49.8917 48.3392 49.401 48.8146 48.803L49.0906 49.286C48.3392 50.252 47.5419 50.9957 46.6986 51.517C45.8552 52.023 44.8202 52.276 43.5936 52.276C42.6582 52.276 41.8226 52.046 41.0866 51.586C40.3506 51.126 39.7756 50.5127 39.3616 49.746C38.9476 48.964 38.7406 48.1207 38.7406 47.216C38.7406 46.0813 39.0472 44.9773 39.6606 43.904C40.2739 42.8307 41.0866 41.9643 42.0986 41.305C43.1106 40.6303 44.1762 40.293 45.2956 40.293ZM44.0996 41.742C43.4249 41.742 42.8192 41.9567 42.2826 42.386C41.7612 42.8153 41.3472 43.3673 41.0406 44.042C40.7492 44.7167 40.6036 45.4143 40.6036 46.135C40.6036 47.0857 40.8259 47.8983 41.2706 48.573C41.9146 48.2817 42.6122 47.8447 43.3636 47.262C44.1149 46.664 44.7512 46.02 45.2726 45.33C45.7939 44.64 46.0546 44.0113 46.0546 43.444C46.0546 42.3093 45.4029 41.742 44.0996 41.742ZM56.9212 40.5C57.6725 40.5 58.3778 40.661 59.0372 40.983C59.7118 41.305 60.2025 41.7957 60.5092 42.455L58.8532 43.352C58.6078 42.9993 58.2705 42.685 57.8412 42.409C57.4118 42.1177 56.9518 41.972 56.4612 41.972C55.6792 41.972 54.9968 42.179 54.4142 42.593C53.8315 42.9917 53.3868 43.536 53.0802 44.226C52.7735 44.916 52.6202 45.6827 52.6202 46.526C52.6202 47.7373 52.8272 48.7263 53.2412 49.493C53.6552 50.2443 54.3068 50.62 55.1962 50.62C56.4535 50.62 57.3198 50.114 57.7952 49.102C58.2705 48.09 58.5082 46.986 58.5082 45.79V44.755L60.5322 43.904V49.953C60.5322 50.1523 60.5858 50.344 60.6932 50.528C60.8005 50.712 60.9615 50.804 61.1762 50.804C61.6208 50.804 62.0272 50.4973 62.3952 49.884L62.7402 50.252C62.5562 50.7733 62.2342 51.218 61.7742 51.586C61.3142 51.9387 60.8542 52.115 60.3942 52.115C59.7348 52.115 59.2442 51.8697 58.9222 51.379C58.6155 50.8883 58.4622 50.2367 58.4622 49.424H58.4162C58.0328 50.2367 57.5115 50.919 56.8522 51.471C56.2082 52.0077 55.5258 52.276 54.8052 52.276C53.5018 52.276 52.5128 51.8313 51.8382 50.942C51.1788 50.0373 50.8492 48.8337 50.8492 47.331C50.8492 46.135 51.1175 45.0157 51.6542 43.973C52.1908 42.915 52.9192 42.0717 53.8392 41.443C54.7745 40.8143 55.8018 40.5 56.9212 40.5ZM67.1377 50.068C67.1377 50.252 67.1913 50.4283 67.2987 50.597C67.406 50.7657 67.59 50.85 67.8507 50.85C68.0653 50.85 68.2877 50.758 68.5177 50.574C68.763 50.3747 68.947 50.1677 69.0697 49.953L69.4607 50.298C69.2 50.804 68.8397 51.2333 68.3797 51.586C67.9197 51.9387 67.4597 52.115 66.9997 52.115C65.7117 52.115 65.0677 51.3407 65.0677 49.792V31.622L67.1377 30.748V50.068ZM74.2637 40.5H77.4607L76.7707 41.972H74.2637V50.068C74.2637 50.298 74.3327 50.4897 74.4707 50.643C74.6087 50.781 74.7927 50.85 75.0227 50.85C75.3447 50.85 75.7894 50.551 76.3567 49.953L76.6787 50.298C76.3874 50.8807 76.0347 51.3177 75.6207 51.609C75.222 51.885 74.8387 52.0537 74.4707 52.115C74.118 52.1917 73.9417 52.1993 73.9417 52.138C73.957 52.138 73.98 52.1303 74.0107 52.115C74.0414 52.115 74.0874 52.115 74.1487 52.115C72.7994 52.115 72.1247 51.3407 72.1247 49.792V41.972H70.3997L71.1127 40.5H72.1247V35.21L74.2637 34.382V40.5ZM81.8469 47.101H81.9389C82.0922 46.2577 82.3605 45.3147 82.7439 44.272C83.1425 43.214 83.6715 42.2863 84.3309 41.489C84.9902 40.6917 85.7645 40.293 86.6539 40.293C87.1292 40.293 87.4742 40.4693 87.6889 40.822C87.9189 41.1593 88.0492 41.5427 88.0799 41.972C88.1259 42.4013 88.1489 42.9687 88.1489 43.674V50.068C88.1489 50.252 88.2025 50.4283 88.3099 50.597C88.4325 50.7657 88.6165 50.85 88.8619 50.85C89.2605 50.85 89.6669 50.551 90.0809 49.953L90.3569 50.298C90.1422 50.804 89.7972 51.2333 89.3219 51.586C88.8619 51.9387 88.3942 52.115 87.9189 52.115C86.7229 52.115 86.1249 51.3407 86.1249 49.792V43.697C86.1249 43.4977 86.0789 43.3137 85.9869 43.145C85.9102 42.9763 85.7722 42.892 85.5729 42.892C84.7909 42.892 84.1162 43.5053 83.5489 44.732C82.9815 45.9433 82.5445 47.285 82.2379 48.757C81.9312 50.2137 81.7779 51.2027 81.7779 51.724L79.7309 52.322V31.622L81.8469 30.748V47.101Z" fill="#0A6835"/>
<path d="M101.913 50.758C101.913 52.1993 101.621 53.5487 101.039 54.806C100.471 56.0633 99.7124 57.0677 98.7618 57.819C97.8111 58.5703 96.7991 58.946 95.7258 58.946C95.3118 58.946 94.9208 58.8847 94.5528 58.762C94.1848 58.6393 93.8014 58.4323 93.4028 58.141L95.0128 56.094C95.3348 56.416 95.7104 56.6767 96.1398 56.876C96.5844 57.0753 96.9984 57.175 97.3818 57.175C97.8571 57.175 98.2864 56.8913 98.6698 56.324C99.0531 55.7567 99.3521 54.9747 99.5668 53.978C99.7968 52.9813 99.9118 51.8543 99.9118 50.597C99.9118 47.745 99.9194 45.9127 99.9348 45.1V43.72H99.7968C98.5394 49.424 96.9064 52.276 94.8978 52.276C94.4531 52.276 94.1234 52.184 93.9088 52C93.6941 51.8313 93.5484 51.517 93.4718 51.057C93.3951 50.597 93.3568 49.8993 93.3568 48.964V42.478C93.3568 42.2327 93.2954 42.0257 93.1728 41.857C93.0501 41.6883 92.8968 41.604 92.7128 41.604C92.3294 41.604 91.9231 41.9183 91.4938 42.547L91.1258 42.179C91.4631 41.4583 91.7928 40.9677 92.1148 40.707C92.4521 40.4463 92.9351 40.316 93.5638 40.316C94.1771 40.316 94.6371 40.5153 94.9438 40.914C95.2504 41.2973 95.4038 41.8647 95.4038 42.616V48.895C95.4038 49.4623 95.5648 49.746 95.8868 49.746C96.2701 49.746 96.7608 49.2247 97.3588 48.182C97.9568 47.1393 98.4858 45.9357 98.9458 44.571C99.4058 43.191 99.6358 42.0717 99.6358 41.213L101.913 40.178V50.758ZM105.165 44.364L105.901 42.409H113.652L112.962 44.364H105.165ZM118.889 51.563L116.75 52.322V36.015L118.889 35.21V51.563ZM130.882 40.293C131.496 40.293 131.894 40.523 132.078 40.983C132.262 41.4277 132.354 42.0487 132.354 42.846V43.559V50.068C132.354 50.2367 132.408 50.413 132.515 50.597C132.623 50.7657 132.776 50.85 132.975 50.85C133.236 50.85 133.458 50.7657 133.642 50.597C133.826 50.4283 134.01 50.2137 134.194 49.953L134.539 50.298C134.309 50.7887 133.964 51.218 133.504 51.586C133.044 51.9387 132.607 52.115 132.193 52.115C131.58 52.115 131.105 51.9233 130.767 51.54C130.43 51.1567 130.261 50.574 130.261 49.792V43.697C130.261 43.467 130.238 43.2753 130.192 43.122C130.146 42.9687 130.031 42.892 129.847 42.892C129.219 42.892 128.575 43.4977 127.915 44.709C127.256 45.9203 126.689 47.2773 126.213 48.78C125.753 50.2673 125.523 51.2487 125.523 51.724L123.522 52.322V42.478C123.522 42.2633 123.461 42.0717 123.338 41.903C123.231 41.719 123.07 41.627 122.855 41.627C122.487 41.627 122.089 41.9567 121.659 42.616L121.314 42.248C121.514 41.696 121.843 41.236 122.303 40.868C122.763 40.4847 123.223 40.293 123.683 40.293C124.327 40.293 124.803 40.4463 125.109 40.753C125.431 41.0597 125.592 41.4813 125.592 42.018V48.067H125.684C126.098 46.7023 126.497 45.514 126.88 44.502C127.264 43.49 127.8 42.5393 128.49 41.65C129.18 40.7453 129.978 40.293 130.882 40.293Z" fill="#DE3B44"/>
<defs>
<linearGradient id="paint0_linear_343_2457" x1="107.591" y1="15.2903" x2="107.564" y2="31.7435" gradientUnits="userSpaceOnUse">
<stop stop-color="#DC2F39"/>
<stop offset="0.459913" stop-color="#DC2F39" stop-opacity="0.77"/>
<stop offset="1" stop-color="#DC2F39" stop-opacity="0"/>
</linearGradient>
<linearGradient id="paint1_linear_343_2457" x1="108.217" y1="27.0718" x2="108.217" y2="32.6169" gradientUnits="userSpaceOnUse">
<stop stop-color="#DC2F39" stop-opacity="0.76"/>
<stop offset="0.563969" stop-color="#DC2F39" stop-opacity="0.603917"/>
<stop offset="1" stop-color="#DC2F39" stop-opacity="0.3"/>
</linearGradient>
</defs>
</svg>
