<svg width="319" height="127" viewBox="0 0 319 127" fill="none" xmlns="http://www.w3.org/2000/svg">
<path d="M209.72 57.5893C211.921 58.0721 213.693 57.271 216.138 56.1307H216.138C215.457 54.1713 214.908 52.1688 214.494 50.1362C212.032 51.8443 205.051 56.0301 209.72 57.5894L209.72 57.5893Z" fill="#32794F"/>
<path d="M216.855 55.7705C225.788 49.9833 237.681 46.8429 248.104 49.9992C250.757 37.5435 244.025 32.5467 234.842 34.8277C233.744 35.8726 234.275 39.9467 231.946 40.1961C229.14 39.9733 229.591 38.0426 229.946 35.2044C227.603 34.4365 225.506 34.1377 223.672 34.2461C225.954 40.7899 223.672 44.2725 214.731 45.4133C214.722 48.464 215.41 51.9834 216.855 55.7706L216.855 55.7705Z" fill="url(#paint0_linear_345_2553)"/>
<path d="M236.98 56.513C230.084 56.5607 224.413 59.7437 219.798 62.3057C223.013 68.4434 227.957 67.2974 231.691 65.5787C238.057 68.7617 242.47 66.8464 245.977 57.3141C243.012 56.7513 239.998 56.483 236.98 56.513H236.98Z" fill="url(#paint1_linear_345_2553)"/>
<path d="M231.945 39.3994C232.253 39.3994 232.508 39.304 232.576 39.0705C234.359 30.9917 238.221 30.1535 238.221 30.1535L236.099 28C229.94 30.3763 229.325 40.2008 231.945 39.3994Z" fill="#0A6835"/>
<path d="M248.306 52.4165C248.306 52.6363 248.127 52.8143 247.908 52.8143C247.688 52.8143 247.51 52.6363 247.51 52.4165V50.6711C246.449 50.4324 245.33 50.2148 244.12 50.0398C243.998 50.4058 244.454 52.374 243.722 52.3207C242.98 52.3843 243.447 50.2836 243.324 49.928C242.115 49.7797 240.826 49.6683 239.462 49.6098C239.346 49.9758 239.802 51.9706 239.065 51.9173C238.333 51.9757 238.789 49.9332 238.667 49.578V49.5784C237.556 49.5502 236.444 49.5787 235.335 49.6631C235.171 50.0187 235.739 53.6735 234.938 53.5621C234.131 53.6842 234.699 50.0716 234.54 49.7375C233.399 49.8596 232.269 50.0579 231.155 50.3317V52.1778C231.155 52.3972 230.977 52.5755 230.758 52.5755C230.538 52.5755 230.36 52.3972 230.36 52.1778V50.5334C229.333 50.8109 228.32 51.1402 227.326 51.5199V53.8751C227.326 54.0949 227.147 54.2729 226.928 54.2729C226.708 54.2729 226.53 54.0949 226.53 53.8751V51.7852C225.368 52.2574 224.259 52.7665 223.198 53.2916V55.5409C223.198 55.7607 223.02 55.9387 222.8 55.9387C222.581 55.9387 222.403 55.7607 222.403 55.5409V53.7159C221.267 54.2995 220.233 54.8619 219.172 55.4348V57.3338C219.172 57.5535 218.994 57.7315 218.774 57.7315C218.554 57.7315 218.376 57.5535 218.376 57.3338V55.8592C217.438 56.3632 216.541 56.8246 215.676 57.2224V60.8613C214.483 62.7658 214.96 57.8589 214.881 57.5725C213.928 57.9921 212.926 58.2899 211.899 58.4583C211.783 58.8191 212.228 60.7288 211.502 60.6811C210.786 60.7288 211.215 58.8828 211.104 58.5276H211.104C210.056 58.5879 209.016 58.3152 208.133 57.7475C206.26 75.471 224.578 54.273 236.954 55.7157C245.346 55.5936 252.041 57.8693 255.075 59.3761V53.3184C254.151 52.8588 253.204 52.4477 252.237 52.0877V53.4616C252.237 53.6814 252.059 53.8594 251.839 53.8594C251.62 53.8594 251.441 53.6814 251.441 53.4616V51.7854C250.503 51.462 249.447 51.1382 248.258 50.8467L248.306 52.4165Z" fill="#0A6835"/>
<path d="M56.741 27.965C59.8443 27.965 62.376 28.8143 64.336 30.513C66.3287 32.179 67.325 34.6943 67.325 38.059C67.325 40.7377 66.4267 43.2367 64.63 45.556C62.8333 47.8427 60.5303 49.672 57.721 51.044C54.9443 52.416 52.1513 53.102 49.342 53.102C49.048 53.102 48.8683 53.0693 48.803 53.004L49.048 51.681C51.2367 51.4523 53.3763 50.7663 55.467 49.623C57.5577 48.4797 59.2563 46.9933 60.563 45.164C61.9023 43.302 62.572 41.244 62.572 38.99C62.572 36.54 61.8207 34.58 60.318 33.11C58.848 31.64 56.6593 30.905 53.752 30.905C51.498 30.905 49.1133 31.444 46.598 32.522C44.1153 33.5673 41.943 34.9393 40.081 36.638L39.15 35.609C41.5347 33.3877 44.3113 31.5583 47.48 30.121C50.6813 28.6837 53.7683 27.965 56.741 27.965ZM46.794 61.922L42.286 63.637V36.834L46.794 35.07V61.922ZM76.6683 50.505C77.7463 48.0223 79.0203 46.0133 80.4903 44.478L80.3433 44.331C79.004 45.0497 77.534 45.409 75.9333 45.409C75.3126 45.409 74.8226 45.3763 74.4633 45.311C74.104 45.2457 73.6466 45.0987 73.0913 44.87L69.9063 51.877L68.0933 51.044L71.3763 44.184C70.3636 43.3347 69.743 42.5833 69.5143 41.93L73.4833 37.471C73.9733 38.6797 74.6756 39.7903 75.5903 40.803C76.505 41.783 77.5176 42.273 78.6283 42.273C80.523 42.273 82.6136 41.5543 84.9003 40.117L85.6843 40.803C83.7243 42.8937 82.1073 45.0497 80.8333 47.271C79.5593 49.4923 78.9223 51.8443 78.9223 54.327C78.9223 55.8623 79.3143 57.169 80.0983 58.247C80.8823 59.325 82.042 59.864 83.5773 59.864C84.5573 59.864 85.5536 59.521 86.5663 58.835L87.1053 59.57C86.2233 60.7133 85.1453 61.6443 83.8713 62.363C82.63 63.0817 81.3233 63.441 79.9513 63.441C78.2526 63.441 77.0113 62.853 76.2273 61.677C75.476 60.4683 75.1003 58.982 75.1003 57.218C75.1003 55.1927 75.623 52.955 76.6683 50.505ZM103.051 39.088C100.601 40.656 98.674 42.4037 97.2694 44.331C95.8647 46.2583 95.1624 48.5287 95.1624 51.142C95.1624 52.612 95.4727 54.0983 96.0934 55.601C96.714 57.071 97.645 58.296 98.8864 59.276C100.128 60.256 101.614 60.746 103.345 60.746C104.75 60.746 105.991 60.4193 107.069 59.766C108.18 59.1127 109.029 58.2307 109.617 57.12C110.238 56.0093 110.548 54.7843 110.548 53.445C110.548 51.9097 110.075 50.3417 109.127 48.741C108.213 47.1403 107.004 45.7847 105.501 44.674C103.999 43.5633 102.463 42.9427 100.895 42.812C101.549 42.1587 102.333 41.4727 103.247 40.754C104.162 40.0353 105.093 39.333 106.04 38.647C108.294 39.3983 110.075 40.8357 111.381 42.959C112.688 45.0497 113.341 47.3853 113.341 49.966C113.341 52.2527 112.868 54.4577 111.92 56.581C111.006 58.6717 109.65 60.3867 107.853 61.726C106.057 63.0327 103.933 63.686 101.483 63.686C99.5234 63.686 97.7104 63.2123 96.0444 62.265C94.411 61.285 93.1207 59.962 92.1734 58.296C91.226 56.63 90.7524 54.7843 90.7524 52.759C90.7524 49.1983 91.7977 46.1113 93.8884 43.498C96.0117 40.8847 98.772 39.0717 102.169 38.059L103.051 39.088ZM121.515 34.139L119.604 23.947L125.043 22.134L123.23 33.551L121.515 34.139ZM120.339 40.509L124.7 38.696V60.354C124.7 63.3267 124.014 66.1197 122.642 68.733C121.302 71.3463 119.538 73.437 117.35 75.005C115.161 76.6057 112.891 77.406 110.539 77.406C109.069 77.406 107.68 76.965 106.374 76.083L109.902 71.722C111.176 72.8653 112.776 73.437 114.704 73.437C116.37 73.437 117.725 72.751 118.771 71.379C119.816 70.0397 120.339 67.4427 120.339 63.588V40.509ZM145.152 38.059C146.916 38.059 148.386 38.5327 149.562 39.48C150.738 40.4273 151.326 41.832 151.326 43.694C151.326 45.1967 150.509 46.879 148.876 48.741C147.275 50.5703 145.381 52.2527 143.192 53.788C141.036 55.3233 139.19 56.4013 137.655 57.022C138.472 58.3287 139.403 59.2433 140.448 59.766C141.493 60.256 142.718 60.501 144.123 60.501C145.691 60.501 147.243 60.109 148.778 59.325C150.346 58.5083 151.636 57.463 152.649 56.189L153.237 57.218C151.636 59.276 149.938 60.8603 148.141 61.971C146.344 63.049 144.139 63.588 141.526 63.588C139.533 63.588 137.753 63.098 136.185 62.118C134.617 61.138 133.392 59.8313 132.51 58.198C131.628 56.532 131.187 54.7353 131.187 52.808C131.187 50.3907 131.84 48.0387 133.147 45.752C134.454 43.4653 136.185 41.6197 138.341 40.215C140.497 38.7777 142.767 38.059 145.152 38.059ZM142.604 41.146C141.167 41.146 139.876 41.6033 138.733 42.518C137.622 43.4327 136.74 44.6087 136.087 46.046C135.466 47.4833 135.156 48.9697 135.156 50.505C135.156 52.5303 135.63 54.2617 136.577 55.699C137.949 55.0783 139.435 54.1473 141.036 52.906C142.637 51.632 143.992 50.26 145.103 48.79C146.214 47.32 146.769 45.9807 146.769 44.772C146.769 42.3547 145.381 41.146 142.604 41.146ZM164.04 38.5H170.851L169.381 41.636H164.04V58.884C164.04 59.374 164.187 59.7823 164.481 60.109C164.775 60.403 165.167 60.55 165.657 60.55C166.343 60.55 167.29 59.913 168.499 58.639L169.185 59.374C168.564 60.6153 167.813 61.5463 166.931 62.167C166.081 62.755 165.265 63.1143 164.481 63.245C163.729 63.4083 163.354 63.4247 163.354 63.294C163.386 63.294 163.435 63.2777 163.501 63.245C163.566 63.245 163.664 63.245 163.795 63.245C160.92 63.245 159.483 61.5953 159.483 58.296V41.636H155.808L157.327 38.5H159.483V27.23L164.04 25.466V38.5ZM185.835 39.088C183.385 40.656 181.457 42.4037 180.053 44.331C178.648 46.2583 177.946 48.5287 177.946 51.142C177.946 52.612 178.256 54.0983 178.877 55.601C179.497 57.071 180.428 58.296 181.67 59.276C182.911 60.256 184.397 60.746 186.129 60.746C187.533 60.746 188.775 60.4193 189.853 59.766C190.963 59.1127 191.813 58.2307 192.401 57.12C193.021 56.0093 193.332 54.7843 193.332 53.445C193.332 51.9097 192.858 50.3417 191.911 48.741C190.996 47.1403 189.787 45.7847 188.285 44.674C186.782 43.5633 185.247 42.9427 183.679 42.812C184.332 42.1587 185.116 41.4727 186.031 40.754C186.945 40.0353 187.876 39.333 188.824 38.647C191.078 39.3983 192.858 40.8357 194.165 42.959C195.471 45.0497 196.125 47.3853 196.125 49.966C196.125 52.2527 195.651 54.4577 194.704 56.581C193.789 58.6717 192.433 60.3867 190.637 61.726C188.84 63.0327 186.717 63.686 184.267 63.686C182.307 63.686 180.494 63.2123 178.828 62.265C177.194 61.285 175.904 59.962 174.957 58.296C174.009 56.63 173.536 54.7843 173.536 52.759C173.536 49.1983 174.581 46.1113 176.672 43.498C178.795 40.8847 181.555 39.0717 184.953 38.059L185.835 39.088Z" fill="#0A6835"/>
<path d="M79.6485 72.994L84.2055 71.23V106.02L79.6485 107.686V93.427H65.8795V106.02L61.2735 107.686V93.427H57.3045L58.7255 90.536H61.2735V72.994L65.8795 71.23V90.536H79.6485V72.994ZM103.695 82.059C105.459 82.059 106.929 82.5327 108.105 83.48C109.281 84.4273 109.869 85.832 109.869 87.694C109.869 89.1967 109.052 90.879 107.419 92.741C105.818 94.5703 103.924 96.2527 101.735 97.788C99.5789 99.3233 97.7332 100.401 96.1979 101.022C97.0146 102.329 97.9456 103.243 98.9909 103.766C100.036 104.256 101.261 104.501 102.666 104.501C104.234 104.501 105.786 104.109 107.321 103.325C108.889 102.508 110.179 101.463 111.192 100.189L111.78 101.218C110.179 103.276 108.481 104.86 106.684 105.971C104.887 107.049 102.682 107.588 100.069 107.588C98.0762 107.588 96.2959 107.098 94.7279 106.118C93.1599 105.138 91.9349 103.831 91.0529 102.198C90.1709 100.532 89.7299 98.7353 89.7299 96.808C89.7299 94.3907 90.3832 92.0387 91.6899 89.752C92.9966 87.4653 94.7279 85.6197 96.8839 84.215C99.0399 82.7777 101.31 82.059 103.695 82.059ZM101.147 85.146C99.7096 85.146 98.4192 85.6033 97.2759 86.518C96.1652 87.4327 95.2832 88.6087 94.6299 90.046C94.0092 91.4833 93.6989 92.9697 93.6989 94.505C93.6989 96.5303 94.1726 98.2617 95.1199 99.699C96.4919 99.0783 97.9782 98.1473 99.5789 96.906C101.18 95.632 102.535 94.26 103.646 92.79C104.757 91.32 105.312 89.9807 105.312 88.772C105.312 86.3547 103.924 85.146 101.147 85.146ZM128.462 82.5C130.063 82.5 131.566 82.843 132.97 83.529C134.408 84.215 135.453 85.2603 136.106 86.665L132.578 88.576C132.056 87.8247 131.337 87.155 130.422 86.567C129.508 85.9463 128.528 85.636 127.482 85.636C125.816 85.636 124.363 86.077 123.121 86.959C121.88 87.8083 120.933 88.968 120.279 90.438C119.626 91.908 119.299 93.5413 119.299 95.338C119.299 97.9187 119.74 100.026 120.622 101.659C121.504 103.26 122.893 104.06 124.787 104.06C127.466 104.06 129.312 102.982 130.324 100.826C131.337 98.67 131.843 96.318 131.843 93.77V91.565L136.155 89.752V102.639C136.155 103.064 136.27 103.472 136.498 103.864C136.727 104.256 137.07 104.452 137.527 104.452C138.475 104.452 139.34 103.799 140.124 102.492L140.859 103.276C140.467 104.387 139.781 105.334 138.801 106.118C137.821 106.869 136.841 107.245 135.861 107.245C134.457 107.245 133.411 106.722 132.725 105.677C132.072 104.632 131.745 103.243 131.745 101.512H131.647C130.831 103.243 129.72 104.697 128.315 105.873C126.943 107.016 125.49 107.588 123.954 107.588C121.178 107.588 119.071 106.641 117.633 104.746C116.229 102.819 115.526 100.254 115.526 97.053C115.526 94.505 116.098 92.1203 117.241 89.899C118.385 87.645 119.936 85.8483 121.896 84.509C123.889 83.1697 126.078 82.5 128.462 82.5ZM150.228 102.884C150.228 103.276 150.342 103.652 150.571 104.011C150.8 104.37 151.192 104.55 151.747 104.55C152.204 104.55 152.678 104.354 153.168 103.962C153.691 103.537 154.083 103.096 154.344 102.639L155.177 103.374C154.622 104.452 153.854 105.367 152.874 106.118C151.894 106.869 150.914 107.245 149.934 107.245C147.19 107.245 145.818 105.595 145.818 102.296V63.586L150.228 61.724V102.884ZM165.41 82.5H172.221L170.751 85.636H165.41V102.884C165.41 103.374 165.557 103.782 165.851 104.109C166.145 104.403 166.537 104.55 167.027 104.55C167.713 104.55 168.66 103.913 169.869 102.639L170.555 103.374C169.934 104.615 169.183 105.546 168.301 106.167C167.451 106.755 166.635 107.114 165.851 107.245C165.099 107.408 164.724 107.425 164.724 107.294C164.756 107.294 164.805 107.278 164.871 107.245C164.936 107.245 165.034 107.245 165.165 107.245C162.29 107.245 160.853 105.595 160.853 102.296V85.636H157.178L158.697 82.5H160.853V71.23L165.41 69.466V82.5ZM181.565 96.563H181.761C182.088 94.7663 182.659 92.7573 183.476 90.536C184.325 88.282 185.452 86.3057 186.857 84.607C188.262 82.9083 189.911 82.059 191.806 82.059C192.819 82.059 193.554 82.4347 194.011 83.186C194.501 83.9047 194.779 84.7213 194.844 85.636C194.942 86.5507 194.991 87.7593 194.991 89.262V102.884C194.991 103.276 195.105 103.652 195.334 104.011C195.595 104.37 195.987 104.55 196.51 104.55C197.359 104.55 198.225 103.913 199.107 102.639L199.695 103.374C199.238 104.452 198.503 105.367 197.49 106.118C196.51 106.869 195.514 107.245 194.501 107.245C191.953 107.245 190.679 105.595 190.679 102.296V89.311C190.679 88.8863 190.581 88.4943 190.385 88.135C190.222 87.7757 189.928 87.596 189.503 87.596C187.837 87.596 186.4 88.9027 185.191 91.516C183.982 94.0967 183.051 96.955 182.398 100.091C181.745 103.194 181.418 105.301 181.418 106.412L177.057 107.686V63.586L181.565 61.724V96.563Z" fill="#0A6835"/>
<path d="M224.314 104.354C224.314 107.425 223.693 110.299 222.452 112.978C221.243 115.657 219.626 117.796 217.601 119.397C215.576 120.998 213.42 121.798 211.133 121.798C210.251 121.798 209.418 121.667 208.634 121.406C207.85 121.145 207.033 120.704 206.184 120.083L209.614 115.722C210.3 116.408 211.1 116.963 212.015 117.388C212.962 117.813 213.844 118.025 214.661 118.025C215.674 118.025 216.588 117.421 217.405 116.212C218.222 115.003 218.859 113.337 219.316 111.214C219.806 109.091 220.051 106.69 220.051 104.011C220.051 97.935 220.067 94.0313 220.1 92.3V89.36H219.806C217.127 101.512 213.648 107.588 209.369 107.588C208.422 107.588 207.719 107.392 207.262 107C206.805 106.641 206.494 105.971 206.331 104.991C206.168 104.011 206.086 102.525 206.086 100.532V86.714C206.086 86.1913 205.955 85.7503 205.694 85.391C205.433 85.0317 205.106 84.852 204.714 84.852C203.897 84.852 203.032 85.5217 202.117 86.861L201.333 86.077C202.052 84.5417 202.754 83.4963 203.44 82.941C204.159 82.3857 205.188 82.108 206.527 82.108C207.834 82.108 208.814 82.5327 209.467 83.382C210.12 84.1987 210.447 85.4073 210.447 87.008V100.385C210.447 101.594 210.79 102.198 211.476 102.198C212.293 102.198 213.338 101.087 214.612 98.866C215.886 96.6447 217.013 94.0803 217.993 91.173C218.973 88.233 219.463 85.8483 219.463 84.019L224.314 81.814V104.354ZM231.243 90.732L232.811 86.567H249.324L247.854 90.732H231.243ZM260.48 106.069L255.923 107.686V72.945L260.48 71.23V106.069ZM286.032 82.059C287.339 82.059 288.188 82.549 288.58 83.529C288.972 84.4763 289.168 85.7993 289.168 87.498V89.017V102.884C289.168 103.243 289.282 103.619 289.511 104.011C289.74 104.37 290.066 104.55 290.491 104.55C291.046 104.55 291.52 104.37 291.912 104.011C292.304 103.652 292.696 103.194 293.088 102.639L293.823 103.374C293.333 104.419 292.598 105.334 291.618 106.118C290.638 106.869 289.707 107.245 288.825 107.245C287.518 107.245 286.506 106.837 285.787 106.02C285.068 105.203 284.709 103.962 284.709 102.296V89.311C284.709 88.821 284.66 88.4127 284.562 88.086C284.464 87.7593 284.219 87.596 283.827 87.596C282.488 87.596 281.116 88.8863 279.711 91.467C278.306 94.0477 277.098 96.9387 276.085 100.14C275.105 103.309 274.615 105.399 274.615 106.412L270.352 107.686V86.714C270.352 86.2567 270.221 85.8483 269.96 85.489C269.731 85.097 269.388 84.901 268.931 84.901C268.147 84.901 267.298 85.6033 266.383 87.008L265.648 86.224C266.073 85.048 266.775 84.068 267.755 83.284C268.735 82.4673 269.715 82.059 270.695 82.059C272.067 82.059 273.08 82.3857 273.733 83.039C274.419 83.6923 274.762 84.5907 274.762 85.734V98.621H274.958C275.84 95.7137 276.689 93.182 277.506 91.026C278.323 88.87 279.466 86.8447 280.936 84.95C282.406 83.0227 284.105 82.059 286.032 82.059Z" fill="#DE3B44"/>
<defs>
<linearGradient id="paint0_linear_345_2553" x1="231.71" y1="34.2246" x2="231.658" y2="65.3482" gradientUnits="userSpaceOnUse">
<stop stop-color="#DC2F39"/>
<stop offset="0.459913" stop-color="#DC2F39" stop-opacity="0.77"/>
<stop offset="1" stop-color="#DC2F39" stop-opacity="0"/>
</linearGradient>
<linearGradient id="paint1_linear_345_2553" x1="232.887" y1="56.5107" x2="232.887" y2="67.0002" gradientUnits="userSpaceOnUse">
<stop stop-color="#DC2F39" stop-opacity="0.76"/>
<stop offset="0.563969" stop-color="#DC2F39" stop-opacity="0.603917"/>
<stop offset="1" stop-color="#DC2F39" stop-opacity="0.3"/>
</linearGradient>
</defs>
</svg>
